<svg width="29" height="6" viewBox="0 0 29 6" fill="none" xmlns="http://www.w3.org/2000/svg">
<path d="M2.4555 5.25C1.81893 5.25 1.26867 5.00694 0.804729 4.52083C0.351576 4.02315 0.125 3.43287 0.125 2.75C0.125 2.05556 0.351576 1.46528 0.804729 0.979167C1.26867 0.493056 1.81893 0.25 2.4555 0.25C3.10286 0.25 3.65312 0.493056 4.10627 0.979167C4.55943 1.46528 4.786 2.05556 4.786 2.75C4.786 3.20139 4.67811 3.61806 4.46232 4C4.25732 4.38194 3.9768 4.68866 3.62075 4.92014C3.27549 5.14005 2.88708 5.25 2.4555 5.25Z" fill="#9B9A97"/>
<path d="M14.125 5.25C13.4884 5.25 12.9382 5.00694 12.4742 4.52083C12.0211 4.02315 11.7945 3.43287 11.7945 2.75C11.7945 2.05556 12.0211 1.46528 12.4742 0.979167C12.9382 0.493056 13.4884 0.25 14.125 0.25C14.7724 0.25 15.3226 0.493056 15.7758 0.979167C16.2289 1.46528 16.4555 2.05556 16.4555 2.75C16.4555 3.20139 16.3476 3.61806 16.1318 4C15.9268 4.38194 15.6463 4.68866 15.2903 4.92014C14.945 5.14005 14.5566 5.25 14.125 5.25Z" fill="#9B9A97"/>
<path d="M25.7945 5.25C25.1579 5.25 24.6077 5.00694 24.1437 4.52083C23.6906 4.02315 23.464 3.43287 23.464 2.75C23.464 2.05556 23.6906 1.46528 24.1437 0.979167C24.6077 0.493056 25.1579 0.25 25.7945 0.25C26.4419 0.25 26.9921 0.493056 27.4453 0.979167C27.8984 1.46528 28.125 2.05556 28.125 2.75C28.125 3.20139 28.0171 3.61806 27.8013 4C27.5963 4.38194 27.3158 4.68866 26.9597 4.92014C26.6145 5.14005 26.2261 5.25 25.7945 5.25Z" fill="#9B9A97"/>
</svg>
