<svg width="29" height="6" viewBox="0 0 29 6" fill="none" xmlns="http://www.w3.org/2000/svg">
<path d="M2.7055 5.5C2.06893 5.5 1.51867 5.25694 1.05473 4.77083C0.601576 4.27315 0.375 3.68287 0.375 3C0.375 2.30556 0.601576 1.71528 1.05473 1.22917C1.51867 0.743056 2.06893 0.5 2.7055 0.5C3.35286 0.5 3.90312 0.743056 4.35627 1.22917C4.80943 1.71528 5.036 2.30556 5.036 3C5.036 3.45139 4.92811 3.86806 4.71232 4.25C4.50732 4.63194 4.2268 4.93866 3.87075 5.17014C3.52549 5.39005 3.13708 5.5 2.7055 5.5Z" fill="#9B9A97"/>
<path d="M14.375 5.5C13.7384 5.5 13.1882 5.25694 12.7242 4.77083C12.2711 4.27315 12.0445 3.68287 12.0445 3C12.0445 2.30556 12.2711 1.71528 12.7242 1.22917C13.1882 0.743056 13.7384 0.5 14.375 0.5C15.0224 0.5 15.5726 0.743056 16.0258 1.22917C16.4789 1.71528 16.7055 2.30556 16.7055 3C16.7055 3.45139 16.5976 3.86806 16.3818 4.25C16.1768 4.63194 15.8963 4.93866 15.5403 5.17014C15.195 5.39005 14.8066 5.5 14.375 5.5Z" fill="#9B9A97"/>
<path d="M26.0445 5.5C25.4079 5.5 24.8577 5.25694 24.3937 4.77083C23.9406 4.27315 23.714 3.68287 23.714 3C23.714 2.30556 23.9406 1.71528 24.3937 1.22917C24.8577 0.743056 25.4079 0.5 26.0445 0.5C26.6919 0.5 27.2421 0.743056 27.6953 1.22917C28.1484 1.71528 28.375 2.30556 28.375 3C28.375 3.45139 28.2671 3.86806 28.0513 4.25C27.8463 4.63194 27.5658 4.93866 27.2097 5.17014C26.8645 5.39005 26.4761 5.5 26.0445 5.5Z" fill="#9B9A97"/>
</svg>
