<svg width="29" height="6" viewBox="0 0 29 6" fill="none" xmlns="http://www.w3.org/2000/svg">
<path d="M2.5805 5.5C1.94393 5.5 1.39367 5.25694 0.929729 4.77083C0.476576 4.27315 0.25 3.68287 0.25 3C0.25 2.30556 0.476576 1.71528 0.929729 1.22917C1.39367 0.743056 1.94393 0.5 2.5805 0.5C3.22786 0.5 3.77812 0.743056 4.23127 1.22917C4.68443 1.71528 4.911 2.30556 4.911 3C4.911 3.45139 4.80311 3.86806 4.58732 4.25C4.38232 4.63194 4.1018 4.93866 3.74575 5.17014C3.40049 5.39005 3.01208 5.5 2.5805 5.5Z" fill="#9B9A97"/>
<path d="M14.25 5.5C13.6134 5.5 13.0632 5.25694 12.5992 4.77083C12.1461 4.27315 11.9195 3.68287 11.9195 3C11.9195 2.30556 12.1461 1.71528 12.5992 1.22917C13.0632 0.743056 13.6134 0.5 14.25 0.5C14.8974 0.5 15.4476 0.743056 15.9008 1.22917C16.3539 1.71528 16.5805 2.30556 16.5805 3C16.5805 3.45139 16.4726 3.86806 16.2568 4.25C16.0518 4.63194 15.7713 4.93866 15.4153 5.17014C15.07 5.39005 14.6816 5.5 14.25 5.5Z" fill="#9B9A97"/>
<path d="M25.9195 5.5C25.2829 5.5 24.7327 5.25694 24.2687 4.77083C23.8156 4.27315 23.589 3.68287 23.589 3C23.589 2.30556 23.8156 1.71528 24.2687 1.22917C24.7327 0.743056 25.2829 0.5 25.9195 0.5C26.5669 0.5 27.1171 0.743056 27.5703 1.22917C28.0234 1.71528 28.25 2.30556 28.25 3C28.25 3.45139 28.1421 3.86806 27.9263 4.25C27.7213 4.63194 27.4408 4.93866 27.0847 5.17014C26.7395 5.39005 26.3511 5.5 25.9195 5.5Z" fill="#9B9A97"/>
</svg>
