<svg width="16" height="17" viewBox="0 0 16 17" fill="none" xmlns="http://www.w3.org/2000/svg">
<path d="M8.04412 16.0368C12.25 16.0368 15.7132 12.5735 15.7132 8.36765C15.7132 4.16912 12.2426 0.698532 8.03676 0.698532C3.83823 0.698532 0.375 4.16912 0.375 8.36765C0.375 12.5735 3.83823 16.0368 8.04412 16.0368ZM8.04412 14.353C4.72794 14.353 2.06617 11.6838 2.06617 8.36765C2.06617 5.05147 4.72058 2.38236 8.03676 2.38236C11.3603 2.38236 14.022 5.05147 14.0294 8.36765C14.0368 11.6838 11.3603 14.353 8.04412 14.353ZM7.25735 11.8676C7.53676 11.8676 7.78677 11.7206 7.94853 11.4705L11.1838 6.44853C11.2868 6.28677 11.3676 6.10294 11.3676 5.93383C11.3676 5.53676 11.022 5.27206 10.6471 5.27206C10.4044 5.27206 10.1912 5.40442 10.0294 5.66912L7.23529 10.1544L5.92647 8.5147C5.75 8.28677 5.56617 8.19853 5.33824 8.19853C4.94853 8.19853 4.63236 8.50735 4.63236 8.90442C4.63236 9.08824 4.70588 9.25736 4.83823 9.42648L6.53676 11.478C6.74264 11.7353 6.97059 11.8676 7.25735 11.8676Z" fill="#6C9B7D"/>
</svg>
