<svg width="16" height="17" viewBox="0 0 16 17" fill="none" xmlns="http://www.w3.org/2000/svg">
<path d="M8 15.826C11.8623 15.826 15.0615 12.6336 15.0615 8.76445C15.0615 4.90215 11.8623 1.70293 7.99316 1.70293C4.13086 1.70293 0.938477 4.90215 0.938477 8.76445C0.938477 12.6336 4.1377 15.826 8 15.826ZM8 11.1229C6.05176 11.1229 4.54785 11.8133 3.83008 12.6131C2.90039 11.6082 2.33301 10.2547 2.33301 8.76445C2.33301 5.61992 4.84863 3.09746 7.99316 3.09746C11.1377 3.09746 13.6738 5.61992 13.6738 8.76445C13.6738 10.2547 13.1064 11.6082 12.1699 12.6131C11.4521 11.8133 9.94824 11.1229 8 11.1229ZM8 10.0018C9.32617 10.0086 10.3516 8.88066 10.3516 7.41094C10.3516 6.03008 9.31934 4.88164 8 4.88164C6.6875 4.88164 5.6416 6.03008 5.64844 7.41094C5.65527 8.88066 6.68066 9.98809 8 10.0018Z" fill="#37352F" fill-opacity="0.45"/>
</svg>
