<svg width="16" height="17" viewBox="0 0 16 17" fill="none" xmlns="http://www.w3.org/2000/svg">
<path d="M3.85742 15.3561H12.1357C13.6123 15.3561 14.3779 14.5904 14.3779 13.1344V4.81503C14.3779 3.35214 13.6123 2.59335 12.1357 2.59335H3.85742C2.38086 2.59335 1.61523 3.35214 1.61523 4.81503V13.1344C1.61523 14.5973 2.38086 15.3561 3.85742 15.3561ZM3.93945 14.0162C3.30371 14.0162 2.95508 13.6812 2.95508 13.0182V4.9244C2.95508 4.26132 3.30371 3.93319 3.93945 3.93319H12.0537C12.6826 3.93319 13.0381 4.26132 13.0381 4.9244V13.0182C13.0381 13.6812 12.6826 14.0162 12.0537 14.0162H3.93945ZM7.26855 12.2115C7.51465 12.2115 7.72656 12.0885 7.87012 11.8697L10.9258 7.0914C11.0146 6.94784 11.0967 6.78378 11.0967 6.62655C11.0967 6.29159 10.7959 6.06601 10.4746 6.06601C10.2695 6.06601 10.085 6.17538 9.94141 6.4078L7.24121 10.7418L5.96973 9.12167C5.80566 8.90976 5.6416 8.83456 5.43652 8.83456C5.10156 8.83456 4.8418 9.10116 4.8418 9.44296C4.8418 9.60702 4.90332 9.75741 5.01953 9.90097L6.63281 11.8697C6.81738 12.109 7.01562 12.2115 7.26855 12.2115Z" fill="#37352F" fill-opacity="0.45"/>
</svg>
