<svg width="16" height="17" viewBox="0 0 16 17" fill="none" xmlns="http://www.w3.org/2000/svg">
<path d="M8.02206 2.24264C8.44853 2.24264 8.79412 1.90441 8.79412 1.49264C8.79412 1.07352 8.44853 0.720581 8.02206 0.720581C7.6103 0.720581 7.27206 1.07352 7.27206 1.49264C7.27206 1.89706 7.61765 2.24264 8.02206 2.24264ZM10.1618 2.58823C10.5809 2.58823 10.9265 2.24264 10.9265 1.83087C10.9265 1.40441 10.5809 1.06617 10.1618 1.06617C9.74268 1.06617 9.40441 1.40441 9.40441 1.83087C9.40441 2.24264 9.74268 2.58823 10.1618 2.58823ZM5.90441 2.58823C6.31618 2.58823 6.66176 2.24264 6.66176 1.83087C6.66176 1.40441 6.31618 1.06617 5.90441 1.06617C5.48529 1.06617 5.13971 1.40441 5.13971 1.83087C5.13971 2.24264 5.48529 2.58823 5.90441 2.58823ZM12.0808 3.56617C12.5 3.56617 12.8456 3.22794 12.8456 2.80881C12.8456 2.3897 12.5 2.04411 12.0808 2.04411C11.6691 2.04411 11.3235 2.3897 11.3235 2.80881C11.3235 3.22058 11.6691 3.56617 12.0808 3.56617ZM3.9853 3.56617C4.39706 3.56617 4.74264 3.22058 4.74264 2.80881C4.74264 2.3897 4.40441 2.04411 3.9853 2.04411C3.56617 2.04411 3.22059 2.3897 3.22059 2.80881C3.22059 3.22794 3.56617 3.56617 3.9853 3.56617ZM13.6103 5.09558C14.0294 5.09558 14.375 4.74999 14.375 4.33822C14.375 3.91911 14.0294 3.57352 13.6103 3.57352C13.1985 3.57352 12.8529 3.91911 12.8529 4.33822C12.8529 4.74999 13.1985 5.09558 13.6103 5.09558ZM2.47059 5.09558C2.88235 5.09558 3.22794 4.74999 3.22794 4.33822C3.22794 3.91911 2.88235 3.57352 2.47059 3.57352C2.05147 3.57352 1.70588 3.91911 1.70588 4.33822C1.70588 4.74999 2.05147 5.09558 2.47059 5.09558ZM14.5809 6.99999C15 6.99999 15.3456 6.66176 15.3456 6.24264C15.3456 5.82352 15 5.47793 14.5809 5.47793C14.1691 5.47793 13.8235 5.82352 13.8235 6.24264C13.8235 6.6544 14.1691 6.99999 14.5809 6.99999ZM1.5 6.99999C1.90441 6.99999 2.24999 6.6544 2.24999 6.24264C2.24999 5.82352 1.91176 5.47793 1.5 5.47793C1.07352 5.47793 0.735294 5.82352 0.735294 6.24264C0.735294 6.66176 1.07352 6.99999 1.5 6.99999ZM14.9485 9.13235C15.3676 9.13235 15.7132 8.78676 15.7132 8.36764C15.7132 7.95588 15.3676 7.61029 14.9485 7.61029C14.5368 7.61029 14.1912 7.95588 14.1912 8.36764C14.1912 8.78676 14.5368 9.13235 14.9485 9.13235ZM1.13971 9.13235C1.55147 9.13235 1.89705 8.78676 1.89705 8.36764C1.89705 7.95588 1.55147 7.61029 1.13971 7.61029C0.720588 7.61029 0.375 7.95588 0.375 8.36764C0.375 8.78676 0.720588 9.13235 1.13971 9.13235ZM14.5809 11.2647C15 11.2647 15.3456 10.9191 15.3456 10.5C15.3456 10.0809 15 9.74264 14.5809 9.74264C14.1691 9.74264 13.8235 10.0882 13.8235 10.5C13.8235 10.9191 14.1691 11.2647 14.5809 11.2647ZM1.5 11.2647C1.91176 11.2647 2.24999 10.9191 2.24999 10.5C2.24999 10.0882 1.90441 9.74264 1.5 9.74264C1.07352 9.74264 0.735294 10.0809 0.735294 10.5C0.735294 10.9191 1.07352 11.2647 1.5 11.2647ZM13.6103 13.1691C14.0294 13.1691 14.375 12.8236 14.375 12.4044C14.375 11.9926 14.0294 11.6471 13.6103 11.6471C13.1985 11.6471 12.8529 11.9926 12.8529 12.4044C12.8529 12.8236 13.1985 13.1691 13.6103 13.1691ZM2.47059 13.1691C2.88235 13.1691 3.22794 12.8236 3.22794 12.4044C3.22794 11.9926 2.88235 11.6471 2.47059 11.6471C2.05147 11.6471 1.70588 11.9926 1.70588 12.4044C1.70588 12.8236 2.05147 13.1691 2.47059 13.1691ZM12.0808 14.6985C12.5 14.6985 12.8456 14.353 12.8456 13.9338C12.8456 13.5147 12.5 13.1765 12.0808 13.1765C11.6691 13.1765 11.3235 13.522 11.3235 13.9338C11.3235 14.353 11.6691 14.6985 12.0808 14.6985ZM3.9853 14.6985C4.40441 14.6985 4.74264 14.353 4.74264 13.9338C4.74264 13.522 4.39706 13.1765 3.9853 13.1765C3.56617 13.1765 3.22059 13.5147 3.22059 13.9338C3.22059 14.353 3.56617 14.6985 3.9853 14.6985ZM10.1618 15.6765C10.5809 15.6765 10.9265 15.3382 10.9265 14.9118C10.9265 14.5 10.5809 14.1544 10.1618 14.1544C9.74268 14.1544 9.40441 14.5 9.40441 14.9118C9.40441 15.3382 9.74268 15.6765 10.1618 15.6765ZM5.90441 15.6765C6.31618 15.6765 6.66176 15.3382 6.66176 14.9118C6.66176 14.5 6.31618 14.1544 5.90441 14.1544C5.48529 14.1544 5.13971 14.5 5.13971 14.9118C5.13971 15.3382 5.48529 15.6765 5.90441 15.6765ZM8.02206 16.0221C8.44853 16.0221 8.79412 15.6691 8.79412 15.25C8.79412 14.8383 8.44853 14.5 8.02206 14.5C7.61765 14.5 7.27206 14.8456 7.27206 15.25C7.27206 15.6691 7.6103 16.0221 8.02206 16.0221Z" fill="#91918E"/>
</svg>
