<svg width="16" height="17" viewBox="0 0 16 17" fill="none" xmlns="http://www.w3.org/2000/svg">
<g clip-path="url(#clip0_7_18)">
<path d="M8.04412 16.0368C12.25 16.0368 15.7132 12.5735 15.7132 8.36765C15.7132 4.16912 12.2426 0.698532 8.03676 0.698532C3.83823 0.698532 0.375 4.16912 0.375 8.36765C0.375 12.5735 3.83823 16.0368 8.04412 16.0368ZM8.04412 14.353C4.72794 14.353 2.06617 11.6838 2.06617 8.36765C2.06617 5.05147 4.72058 2.38236 8.03676 2.38236C11.3603 2.38236 14.022 5.05147 14.0294 8.36765C14.0368 11.6838 11.3603 14.353 8.04412 14.353ZM6.65441 11.2794L10.9118 8.78677C11.228 8.60295 11.2206 8.14706 10.9118 7.96324L6.65441 5.46324C6.32353 5.27206 5.89705 5.43383 5.89705 5.80147V10.9412C5.89705 11.3015 6.30147 11.4853 6.65441 11.2794Z" fill="#5B97BD"/>
</g>
<defs>
<clipPath id="clip0_7_18">
<rect width="16" height="16" fill="white" transform="translate(0 0.5)"/>
</clipPath>
</defs>
</svg>
